<svg width="100" height="40" viewBox="0 0 100 40" fill="none" xmlns="http://www.w3.org/2000/svg">
<path d="M30.1598 17.1669L30.2067 17.3076L36.3981 14.7748C37.8052 14.212 38.4619 12.5703 37.899 11.1632L37.8052 11.0225L31.6139 13.5553C30.2536 14.1181 29.5501 15.7598 30.1598 17.1669Z" fill="white"/>
<path d="M28.2837 13.4614L28.4244 13.6022L33.1618 8.86483C34.2406 7.78603 34.2406 6.05057 33.1618 4.97177L33.021 4.83105L28.2837 9.52149C27.2049 10.6003 27.2049 12.3827 28.2837 13.4614Z" fill="white"/>
<path d="M60.4595 23.2171H56.6134V21.3878H60.3657V19.7931H56.6134V18.1045H60.4595V16.5098H54.8779V24.8118H60.4595V23.2171Z" fill="white"/>
<path d="M60.3188 12.1018H56.801V5.39453H54.9248V13.7435H60.3188V12.1018Z" fill="white"/>
<path d="M25.1873 10.7874L25.328 10.8343L27.9078 4.64291C28.4706 3.23578 27.8139 1.64104 26.4068 1.03128L26.2661 0.984375L23.6864 7.17574C23.1235 8.58287 23.7802 10.1776 25.1873 10.7874Z" fill="white"/>
<path d="M9.80351 22.7491L9.75661 22.5615L3.56524 25.0944C2.15811 25.6572 1.50145 27.2989 2.0643 28.706L2.1112 28.7998L8.30258 26.3139C9.7097 25.7979 10.3664 24.1563 9.80351 22.7491Z" fill="white"/>
<path d="M11.6325 26.4073L11.4917 26.2666L6.75441 31.0508C5.67561 32.1296 5.67561 33.8651 6.75441 34.9439L6.89512 35.0846L11.6325 30.3473C12.7113 29.2685 12.7113 27.4861 11.6325 26.4073Z" fill="white"/>
<path d="M63.3205 5.39453H61.4443V13.7435H63.3205V5.39453Z" fill="white"/>
<path d="M9.56839 11.6325C10.6472 12.7113 12.3826 12.7113 13.4614 11.6325L13.6022 11.4917L8.86483 6.75441C7.78603 5.67561 6.05057 5.67561 4.97177 6.75441L4.83105 6.89512L9.56839 11.6325Z" fill="white"/>
<path d="M9.47467 18.6681V18.4805H2.76736C1.26642 18.4805 0 19.7 0 21.2478V21.4354H6.70732C8.25516 21.4354 9.47467 20.169 9.47467 18.6681Z" fill="white"/>
<path d="M8.25549 16.4167C8.63073 16.4167 8.95905 16.3229 9.28738 16.229C9.94405 15.9476 10.5069 15.4317 10.7883 14.7281L10.8352 14.5874L4.64386 12.0077C3.23673 11.4448 1.64198 12.1015 1.03223 13.5086V13.6024L7.2236 16.1821C7.55193 16.3229 7.92716 16.4167 8.25549 16.4167Z" fill="white"/>
<path d="M78.1422 12.3364H81.8008L82.3167 13.7435H84.3336L81.0972 5.44143V5.39453H78.7989L75.5625 13.7435H77.6263L78.1422 12.3364ZM79.9715 7.12999L81.2848 10.7416H78.6582L79.9715 7.12999Z" fill="white"/>
<path d="M97.6082 12.1488H93.5275V10.3195H97.5144V8.72474H93.5275V7.03618H97.6082V5.39453H91.6514V13.7435H97.6082V12.1488Z" fill="white"/>
<path d="M86.0699 13.7435H87.946V7.03618H90.3851V5.39453H83.6777V7.03618H86.0699V13.7435Z" fill="white"/>
<path d="M88.5556 16.5098L85.5537 24.8118H87.4299L87.8989 23.4047H91.276L91.7451 24.8118H93.6213L90.6194 16.5567V16.5098H88.5556ZM90.7601 21.81H88.3211L89.5406 18.1983L90.7601 21.81Z" fill="white"/>
<path d="M62.1016 16.5098V21.4816C62.1016 23.6861 63.368 24.9525 65.6194 24.9525C67.8239 24.9525 69.0903 23.6861 69.0903 21.4816V16.5098H67.3548V21.4347C67.3548 22.6073 66.7451 23.3109 65.6194 23.3109C64.4937 23.3109 63.8839 22.6542 63.8839 21.4347V16.5098H62.1016Z" fill="white"/>
<path d="M94.9346 16.5098V24.8118H99.9064V23.1702H96.6231V16.5098H94.9346Z" fill="white"/>
<path d="M74.4839 24.8118V18.1514H76.7353V16.5098H70.4971V18.1514H72.7485V24.8118H74.4839Z" fill="white"/>
<path d="M84.4746 19.1841C84.4746 19.0903 84.4746 18.9965 84.4746 18.9027C84.4277 17.4956 83.2551 16.4168 81.848 16.5106H78.1895V24.8126H79.9249V21.8577H81.0506L82.5516 24.8126H84.5215L82.7861 21.67C83.6304 21.4355 84.4746 20.685 84.4746 19.1841ZM81.5666 20.2629H79.878V18.1053H81.5666C82.1763 18.1053 82.6454 18.5744 82.6454 19.1841C82.6454 19.7939 82.1763 20.2629 81.5666 20.2629Z" fill="white"/>
<path d="M67.2141 8.02117L69.4655 13.6966V13.7435H70.3097L72.5612 8.02117V13.7435H74.4373V5.39453H71.8576L69.8876 10.5071L67.9176 5.44143H65.3379V13.7435H67.2141V8.02117Z" fill="white"/>
<path d="M14.7281 29.0811L14.5874 29.0342L12.0077 35.2256C11.4448 36.6327 12.1015 38.2274 13.5086 38.8372L13.6493 38.8841L16.229 32.6927C16.7919 31.2856 16.1352 29.6908 14.7281 29.0811Z" fill="white"/>
<path d="M61.3507 35.2722C61.3507 35.2253 61.3507 35.1784 61.3507 35.1315C61.3038 34.381 60.6471 33.8181 59.8966 33.865H58.0674V38.1802H58.9586V36.6324H59.4745L60.4126 38.1802H61.4914L60.4126 36.5386C60.9755 36.3979 61.3507 35.8819 61.3507 35.2722ZM59.8028 35.835H58.9586V34.7093H59.8028C59.8497 34.7093 59.8497 34.7093 59.8966 34.7093C60.1781 34.7562 60.4126 34.9907 60.4126 35.3191C60.3657 35.6005 60.0843 35.835 59.8028 35.835Z" fill="white"/>
<path d="M77.1572 33.8652V38.1804H78.0484V33.8652H77.1572Z" fill="white"/>
<path d="M72.0449 38.1804H72.9361V36.3981H74.9999V35.6007H72.9361V34.7095H75.0468V33.8652H72.0449V38.1804Z" fill="white"/>
<path d="M11.1632 1.97055L11.0225 2.01746L13.5553 8.20883C13.8367 8.86549 14.3527 9.42834 15.0562 9.70976C15.3846 9.85048 15.7598 9.94429 16.135 9.94429C16.5103 9.94429 16.8386 9.85048 17.1669 9.70976L17.3545 9.66286L14.8217 3.47149C14.212 2.06436 12.5703 1.4077 11.1632 1.97055Z" fill="white"/>
<path d="M63.2266 34.7095H64.4461V38.1804H65.3842V34.7095H66.6037V33.8652H63.2266V34.7095Z" fill="white"/>
<path d="M100 28.8936H46.7168V29.9254H100V28.8936Z" fill="white"/>
<path d="M80.4414 38.1804H83.4433V37.3362H81.3795V36.3981H83.3964V35.6007H81.3795V34.7095H83.4433V33.8652H80.4414V38.1804Z" fill="white"/>
<path d="M52.8145 38.1804H55.8163V37.3362H53.7056V36.3981H55.7694V35.6007H53.7056V34.7095H55.8163V33.8652H52.8145V38.1804Z" fill="white"/>
<path d="M87.2891 33.8652H85.6943V38.1804H87.2891C88.5086 38.1804 89.4467 37.1954 89.4467 36.0228C89.4467 34.8502 88.4617 33.8652 87.2891 33.8652ZM87.2891 37.3831H86.6324V34.7095H87.2891C87.336 34.7095 87.3829 34.7095 87.4767 34.7095C88.1334 34.7564 88.6493 35.3662 88.6024 36.0228C88.6024 36.0697 88.6024 36.1166 88.6024 36.1635C88.5555 36.8671 87.9457 37.3831 87.2891 37.3831Z" fill="white"/>
<path d="M69.606 33.8652H68.7148V38.1804H69.606V33.8652Z" fill="white"/>
<path d="M29.128 25.141L29.0342 25.2817L35.2725 27.9083C35.6008 28.0491 35.976 28.096 36.3043 28.096C37.4301 28.096 38.415 27.4393 38.8372 26.4074L38.8841 26.2667L32.6927 23.687C31.3325 23.0772 29.7377 23.7339 29.128 25.141Z" fill="white"/>
<path d="M30.3472 28.2368C29.2684 27.158 27.533 27.158 26.4542 28.2368L26.3135 28.3775L31.0508 33.1149C32.1296 34.1937 33.8651 34.1937 34.9439 33.1149L35.0846 32.9742L30.3472 28.2368Z" fill="white"/>
<path d="M26.3598 31.6141C25.7969 30.2069 24.2022 29.5503 22.795 30.1131L22.6074 30.16L25.0934 36.3514C25.3748 37.0081 25.8907 37.5709 26.5943 37.8523C26.9226 37.9931 27.2979 38.0869 27.6731 38.0869C28.0483 38.0869 28.3767 37.9931 28.705 37.8523L28.8926 37.8054L26.3598 31.6141Z" fill="white"/>
<path d="M18.6681 0H18.4805V6.70732C18.4805 8.20825 19.7 9.42777 21.2478 9.42777H21.4354V2.72045C21.4354 1.21951 20.169 0 18.6681 0Z" fill="white"/>
<path d="M18.6681 30.3945H18.4805V37.1019C18.4805 38.6497 19.7 39.8692 21.2478 39.8692H21.4354V33.1619C21.4354 31.6609 20.169 30.3945 18.6681 30.3945Z" fill="white"/>
<path d="M30.4404 21.2478V21.3885H37.1477C38.6956 21.3885 39.9151 20.1221 39.9151 18.6212V18.4805H33.2078C31.6599 18.4805 30.4404 19.7469 30.4404 21.2478Z" fill="white"/>
<path d="M49.8591 13.9302C51.36 13.9771 52.7202 13.1798 53.4238 11.8664L53.4707 11.8195L51.876 11.0691V11.116C51.5007 11.8664 50.7503 12.2886 49.906 12.2886C49.8591 12.2886 49.8122 12.2886 49.8122 12.2886C48.405 12.1948 47.3262 11.0222 47.4201 9.61504C47.4201 9.56814 47.4201 9.56814 47.4201 9.52123C47.4201 8.1141 48.5458 6.9884 49.906 6.94149C50.7503 6.94149 51.5007 7.41054 51.876 8.1141V8.16101L53.4707 7.36363V7.31673C52.7671 6.00341 51.36 5.20603 49.906 5.25294C49.8122 5.25294 49.7184 5.25294 49.6246 5.25294C47.2793 5.29984 45.4501 7.22292 45.497 9.56813C45.497 9.66194 45.497 9.75575 45.497 9.84956C45.5908 12.1948 47.5608 14.024 49.8591 13.9302Z" fill="white"/>
<path d="M47.7013 19.4178L51.3129 24.8118H52.9546V16.5098H51.2191V21.7161L47.7482 16.5098H46.0127L45.9658 24.8118H47.7013V19.4178Z" fill="white"/>
<path d="M48.9682 34.6626C49.3434 34.6626 49.7187 34.8503 49.9063 35.1786L50.0001 35.3193L50.7975 34.8972L50.7037 34.7564C50.3284 34.1467 49.6718 33.8184 48.9682 33.8184C47.7487 33.8184 46.7168 34.8033 46.7168 36.0698C46.7168 37.3362 47.7018 38.3212 48.9682 38.3212C49.6718 38.3212 50.3284 37.9928 50.7037 37.3831L50.7975 37.2893L50.0001 36.8671L49.9063 37.0079C49.7187 37.3362 49.3434 37.5238 48.9682 37.5238C48.3584 37.43 47.8425 36.9609 47.7956 36.3512C47.6549 35.5069 48.2177 34.8033 48.9682 34.6626Z" fill="white"/>
</svg>
