<svg width="185" height="31" viewBox="0 0 185 31" fill="none" xmlns="http://www.w3.org/2000/svg">
<path d="M104.591 17.4113C100.771 17.4113 98.151 14.4823 98.151 10.4793C98.151 6.44381 100.834 3.41718 104.591 3.41718C108.348 3.41718 111.032 6.41127 111.032 10.4793C111.032 14.4823 108.348 17.4113 104.591 17.4113ZM104.591 2.0108e-05C98.6877 2.01681e-05 94.6468 4.62133 94.6468 10.4793C94.6468 16.3048 98.6877 20.8284 104.591 20.8284C110.432 20.8284 114.473 16.3048 114.473 10.4793C114.473 4.62133 110.432 2.00487e-05 104.591 2.0108e-05ZM120.345 0.423097L116.872 0.423097L116.872 20.4054L130.479 20.4054L130.479 16.9882L120.313 16.9882L120.313 0.423097L120.345 0.423097ZM79.3037 20.4054L93.0051 20.4054L93.0051 16.9882L82.7765 16.9882L82.7765 11.9113L91.8686 11.9113L91.8686 8.46157L82.7765 8.46157L82.7765 3.84026L93.0051 3.84026L93.0051 0.423098L79.3037 0.423098L79.3037 20.4054ZM181.054 0.455641L181.054 8.20121C181.054 10.7397 179.759 12.2693 177.834 12.2693C176.003 12.2693 175.087 11.1302 175.087 8.94973L175.087 0.455641L171.172 0.455641L171.235 9.69825C171.235 13.4734 173.193 15.8491 176.571 15.8491C178.528 15.8491 180.044 15.0681 181.085 13.8314L181.085 16.8255C181.085 19.5267 179.538 21.219 177.265 21.219C175.529 21.219 174.235 20.2426 174.014 18.3876L170.288 18.9083C170.478 22.5208 173.382 24.7663 177.265 24.7663C181.906 24.7663 185 21.3492 185 16.6628L185 0.455641L181.054 0.455641ZM162.964 24.0503C162.964 25.4172 161.891 26.4912 160.596 26.4912C158.702 26.4912 157.85 25.1243 157.85 23.79C157.85 22.6509 158.45 21.5444 159.523 20.6983C160.218 20.145 161.291 19.5592 162.996 19.2012L162.996 24.0503L162.964 24.0503ZM161.733 10.5119C161.007 11.2604 160.091 11.6184 158.986 11.6184C157.881 11.6184 156.966 11.2604 156.24 10.5119C155.514 9.7308 155.166 8.78701 155.166 7.61541C155.166 6.44381 155.514 5.46748 156.24 4.71896C156.966 3.93789 157.881 3.5799 158.986 3.5799C160.091 3.5799 161.007 3.93789 161.733 4.71896C162.491 5.46748 162.838 6.44381 162.838 7.61541C162.838 8.75447 162.491 9.7308 161.733 10.5119ZM166.405 11.4231L166.405 0.455641L162.838 0.455641L162.838 2.14795C161.764 0.748541 160.249 0.0651084 158.323 0.0651084C156.461 0.0651084 154.882 0.81363 153.556 2.27813C152.262 3.74263 151.599 5.50002 151.599 7.61541C151.599 9.7308 152.262 11.5207 153.556 12.9852C154.882 14.4497 156.461 15.1657 158.323 15.1657C160.249 15.1657 161.733 14.5148 162.964 12.9527L162.964 15.6213C160.723 15.9793 158.828 16.7604 157.376 17.932C155.482 19.4616 154.377 21.6095 154.377 23.8551C154.377 27.435 157.029 30.1036 160.565 30.1036C163.785 30.1036 166.405 27.4024 166.405 24.0829L166.405 18.9083L168.299 18.9083L168.299 15.3284L166.405 15.3284L166.405 11.4231ZM140.36 17.4113C136.54 17.4113 133.92 14.4823 133.92 10.4793C133.92 6.44381 136.603 3.41718 140.36 3.41718C144.117 3.41718 146.8 6.41127 146.8 10.4793C146.8 14.4823 144.117 17.4113 140.36 17.4113ZM140.392 1.9744e-05C134.488 1.9804e-05 130.447 4.62133 130.447 10.4793C130.447 16.3048 134.488 20.8284 140.392 20.8284C146.232 20.8284 150.273 16.3048 150.273 10.4793C150.273 4.62133 146.232 1.96846e-05 140.392 1.9744e-05ZM-2.04e-08 20.4054L3.4727 20.4054L3.4727 12.4971L12.5017 12.4971L12.5017 9.07991L3.4727 9.07991L3.4727 3.87281L13.6382 3.87281L13.6382 0.423098L-4.22987e-10 0.423099L-2.04e-08 20.4054ZM65.7287 13.2781C65.4761 13.6361 65.1604 13.7989 64.6869 13.7989C64.2133 13.7989 63.8976 13.6361 63.6451 13.2781C63.3294 12.79 63.1399 12.0415 63.1399 11.1628C63.1399 9.11245 63.7713 7.48524 64.6553 6.24855C65.5708 7.48524 66.1706 9.11245 66.1706 11.1628C66.2022 12.0415 66.0444 12.8225 65.7287 13.2781ZM69.3908 0.0325649C67.5597 0.0325649 66.0128 0.553276 64.6869 1.43197C63.3609 0.553276 61.7824 0.032565 59.9829 0.032565C56.0998 0.032565 52.9744 3.28701 52.9744 7.25742L52.9744 20.4054L56.4471 20.4054L56.4471 7.25742C56.4471 5.23967 58.0572 3.57991 60.0145 3.57991C60.6459 3.57991 61.372 3.74263 62.0666 4.06807C60.5512 6.24855 59.7619 8.91719 59.7619 11.1628C59.7619 12.79 60.1408 14.2219 60.8669 15.3284C61.7509 16.6628 63.1399 17.3787 64.75 17.3787C66.3601 17.3787 67.7176 16.6302 68.6331 15.3284C69.3592 14.2545 69.7381 12.8225 69.7381 11.1628C69.7381 8.91719 68.9488 6.216 67.4334 4.06807C68.128 3.74263 68.8225 3.57991 69.4855 3.57991C71.4428 3.57991 73.0529 5.23967 73.0529 7.25742L73.0529 20.4054L76.5256 20.4054L76.5256 7.25742C76.3993 3.25446 73.2423 0.0325648 69.3908 0.0325649ZM39.1468 11.9438L41.9881 4.65387L44.8293 11.9438L39.1468 11.9438ZM39.936 0.423098L32.0751 20.4054L35.8319 20.4054L37.7892 15.3935L46.1553 15.3935L48.1126 20.4054L51.901 20.4054L44.0085 0.423098L39.936 0.423098ZM24.5614 9.30772L19.5418 9.30772L19.5418 3.84026L24.5614 3.84026C26.3925 3.84026 27.4974 4.88168 27.4974 6.54145C27.4974 8.29885 26.3609 9.30772 24.5614 9.30772ZM30.9386 6.57399C30.9386 2.99411 28.5392 0.455643 24.7509 0.455643L16.0691 0.455643L16.0691 20.4379L19.5418 20.4379L19.5418 12.7249L23.8669 12.7249L27.3396 20.4379L31.0964 20.4379L27.308 12.2693C29.5811 11.3906 30.9386 9.27518 30.9386 6.57399Z" fill="white"/>
</svg>
